HIERARCHY
ROOT Hips
{
	OFFSET 55.445202 -4.693624 86.718201
	CHANNELS 6 Xposition Yposition Zposition Xrotation Yrotation Zrotation
	JOINT spine
	{
		OFFSET 0.000000 -0.393701 6.846367
		CHANNELS 3 Xrotation Yrotation Zrotation
		JOINT spine1
		{
			OFFSET 0.000000 -0.000001 9.496208
			CHANNELS 3 Xrotation Yrotation Zrotation
			JOINT spine2
			{
				OFFSET 0.000000 -0.000001 9.099091
				CHANNELS 3 Xrotation Yrotation Zrotation
				JOINT Neck
				{
					OFFSET 0.000000 -1.113784 23.361206
					CHANNELS 3 Xrotation Yrotation Zrotation
					JOINT Head
					{
						OFFSET 0.000000 -0.000001 7.058014
						CHANNELS 3 Xrotation Yrotation Zrotation
						End Site
						{
							OFFSET 0.000000 5.634188 17.084396
						}
					}
				}
				JOINT RightShoulder
				{
					OFFSET -3.831360 0.533489 9.826309
					CHANNELS 3 Xrotation Yrotation Zrotation
					JOINT RightArm
					{
						OFFSET 0.000000 -0.000002 12.888092
						CHANNELS 3 Xrotation Yrotation Zrotation
						JOINT RightArmRoll
						{
							OFFSET 0.000000 -0.000001 6.506165
							CHANNELS 3 Xrotation Yrotation Zrotation
							JOINT RightForeArm
							{
								OFFSET 0.000000 -0.000003 18.950104
								CHANNELS 3 Xrotation Yrotation Zrotation
								JOINT RightForeArmRoll
								{
									OFFSET 0.000000 -0.000001 7.300919
									CHANNELS 3 Xrotation Yrotation Zrotation
									JOINT RightHand
									{
										OFFSET 0.000000 -0.000002 14.651398
										CHANNELS 3 Xrotation Yrotation Zrotation
										End Site
										{
											OFFSET 0.000000 0.000000 0.100006
										}
									}
								}
							}
						}
					}
				}
				JOINT LeftShoulder
				{
					OFFSET 3.831360 0.533489 9.826309
					CHANNELS 3 Xrotation Yrotation Zrotation
					JOINT LeftArm
					{
						OFFSET 0.000000 -0.000002 12.888092
						CHANNELS 3 Xrotation Yrotation Zrotation
						JOINT LeftArmRoll
						{
							OFFSET 0.000000 -0.000001 6.506165
							CHANNELS 3 Xrotation Yrotation Zrotation
							JOINT LeftForeArm
							{
								OFFSET 0.000000 -0.000003 18.950104
								CHANNELS 3 Xrotation Yrotation Zrotation
								JOINT LeftForeArmRoll
								{
									OFFSET 0.000000 -0.000001 7.300934
									CHANNELS 3 Xrotation Yrotation Zrotation
									JOINT LeftHand
									{
										OFFSET 0.000000 -0.000002 14.651398
										CHANNELS 3 Xrotation Yrotation Zrotation
										End Site
										{
											OFFSET 0.000000 0.000000 0.100006
										}
									}
								}
							}
						}
					}
				}
			}
		}
	}
	JOINT RightUpLeg
	{
		OFFSET -6.068371 0.933477 -1.112778
		CHANNELS 3 Xrotation Yrotation Zrotation
		JOINT RightUpLegRoll
		{
			OFFSET 0.000000 -0.000003 17.179596
			CHANNELS 3 Xrotation Yrotation Zrotation
			JOINT RightLeg
			{
				OFFSET 0.000000 0.000003 -21.274300
				CHANNELS 3 Xrotation Yrotation Zrotation
				JOINT RightLegRoll
				{
					OFFSET 0.000000 -0.000003 21.343903
					CHANNELS 3 Xrotation Yrotation Zrotation
					JOINT RightFoot
					{
						OFFSET 0.000000 -0.000003 17.765198
						CHANNELS 3 Xrotation Yrotation Zrotation
						JOINT RightToeBase
						{
							OFFSET 0.000000 -0.000003 14.850792
							CHANNELS 3 Xrotation Yrotation Zrotation
							End Site
							{
								OFFSET 0.006294 0.829004 7.192139
							}
						}
					}
				}
			}
		}
	}
	JOINT LeftUpLeg
	{
		OFFSET 6.068371 0.933477 -1.112778
		CHANNELS 3 Xrotation Yrotation Zrotation
		JOINT LeftUpLegRoll
		{
			OFFSET 0.000000 -0.000003 17.179703
			CHANNELS 3 Xrotation Yrotation Zrotation
			JOINT LeftLeg
			{
				OFFSET 0.000000 -0.000004 21.274200
				CHANNELS 3 Xrotation Yrotation Zrotation
				JOINT LeftLegRoll
				{
					OFFSET 0.000000 -0.000003 21.541199
					CHANNELS 3 Xrotation Yrotation Zrotation
					JOINT LeftFoot
					{
						OFFSET 0.000000 -0.000003 17.567902
						CHANNELS 3 Xrotation Yrotation Zrotation
						JOINT LeftToeBase
						{
							OFFSET 0.000000 -0.000003 14.850800
							CHANNELS 3 Xrotation Yrotation Zrotation
							End Site
							{
								OFFSET -0.028210 0.829004 7.192139
							}
						}
					}
				}
			}
		}
	}
}
MOTION
Frames: 11
Frame Time: 0.041667
64.139107 -6.432324 86.997597 -0.201586 -1.430811 53.401465 -0.587541 -3.208393 1.832038 2.926048 -6.417095 3.662462 4.573974 -6.370467 3.739187 -12.601733 46.774262 14.300151 17.175113 -30.876751 7.097594 3.340339 -10.365650 14.258181 105.631772 11.681809 111.734026 -0.000010 -0.000004 -0.000007 14.900944 -12.418835 -0.292434 -0.000003 0.000006 -3.000001 -4.999647 -7.998762 -0.000210 -104.726847 76.244049 112.332809 -4.707853 66.719269 32.946070 -0.000001 -0.000006 -0.000001 78.267008 2.378241 -2.138292 0.000003 -0.000006 2.999980 -5.000231 8.000634 0.000057 -6.253304 -172.551083 5.711166 179.999991 -0.000004 -0.931003 151.909117 -6.786954 -1.994267 0.000001 -0.000003 0.454800 78.396324 6.717024 1.900885 31.427708 -7.312281 0.761955 -14.707569 186.180356 6.870575 -0.000004 -0.000005 -1.499739 -22.141079 -0.403065 0.568375 -0.000002 0.000000 -1.372883 74.811158 -7.445469 -0.002774 25.456959 7.355614 -0.000000 
64.142799 -6.430862 87.001701 -0.207316 -1.432531 53.348818 -0.585750 -3.204904 1.833832 2.929289 -6.410175 3.665833 4.577199 -6.363408 3.742480 -12.523746 46.777824 14.288274 17.164952 -30.851107 7.110198 3.344151 -10.398154 14.253539 105.722627 11.652736 111.694616 -0.000009 -0.000004 -0.000003 14.914707 -12.481954 -0.278289 -0.000003 0.000003 -3.000002 -4.999644 -7.998760 -0.000207 -104.786112 76.244685 112.392122 -4.671754 66.736385 32.940923 -0.000002 -0.000005 0.000001 78.274453 2.365960 -2.130009 0.000003 -0.000010 2.999979 -5.000230 8.000632 0.000057 -6.237236 -172.564784 5.685627 179.999991 -0.000006 -0.932006 151.941356 -6.762397 -1.988440 0.000000 -0.000003 0.454445 78.397895 6.711688 1.918846 31.404667 -7.312336 0.760983 -14.696533 186.177761 6.868592 -0.000003 -0.000005 -1.499589 -22.136375 -0.402900 0.568571 -0.000003 -0.000001 -1.373040 74.815952 -7.445425 -0.001053 25.456959 7.355618 -0.000002 
64.141808 -6.429873 87.006111 -0.213258 -1.434140 53.295860 -0.584097 -3.201484 1.835698 2.932420 -6.403395 3.669496 4.580318 -6.356513 3.746056 -12.445315 46.779979 14.275504 17.156168 -30.825853 7.123115 3.347703 -10.432461 14.247956 105.813878 11.622599 111.653355 -0.000009 -0.000004 -0.000008 14.930181 -12.545751 -0.263863 -0.000002 0.000004 -2.999999 -4.999644 -7.998761 -0.000206 -104.842871 76.245368 112.448854 -4.633393 66.753652 32.935196 0.000001 -0.000004 0.000002 78.281638 2.353363 -2.121794 0.000004 -0.000009 2.999978 -5.000233 8.000633 0.000057 -6.220903 -172.578472 5.660404 179.999991 -0.000005 -0.933995 151.975834 -6.737062 -1.980908 0.000002 -0.000004 0.454167 78.400477 6.706876 1.934903 31.377561 -7.312366 0.760489 -14.685766 186.174182 6.866149 -0.000004 -0.000006 -1.499441 -22.131975 -0.402495 0.568787 -0.000002 -0.000001 -1.373190 74.820754 -7.445425 0.000463 25.456964 7.355611 -0.000001 
64.139908 -6.428417 87.007004 -0.219438 -1.435579 53.242605 -0.582598 -3.198145 1.837646 2.935441 -6.396745 3.673500 4.583328 -6.349788 3.749967 -12.366575 46.780618 14.261817 17.149109 -30.800960 7.136404 3.351004 -10.468868 14.241352 105.905430 11.591313 111.610263 -0.000010 -0.000005 -0.000003 14.947560 -12.610200 -0.249084 -0.000001 0.000003 -3.000000 -4.999647 -7.998760 -0.000210 -104.896864 76.246214 112.502744 -4.592664 66.770884 32.928871 0.000000 -0.000004 -0.000002 78.288475 2.340429 -2.113600 0.000003 -0.000007 2.999983 -5.000234 8.000633 0.000056 -6.204298 -172.593157 5.635683 179.999991 -0.000004 -0.934994 152.012909 -6.713653 -1.975047 0.000002 -0.000003 0.453969 78.404110 6.702717 1.948865 31.345709 -7.312395 0.760499 -14.675399 186.170616 6.862914 -0.000005 -0.000004 -1.499293 -22.127972 -0.401839 0.569028 -0.000002 -0.000001 -1.373351 74.825795 -7.445454 0.002297 25.456959 7.355613 -0.000000 
64.143005 -6.427594 87.012100 -0.226008 -1.437389 53.188828 -0.581207 -3.194867 1.839723 2.938442 -6.390199 3.677975 4.586318 -6.343223 3.754377 -12.286360 46.779740 14.246684 17.143650 -30.776337 7.149893 3.354009 -10.507678 14.233435 105.997542 11.558665 111.566373 -0.000009 -0.000004 -0.000006 14.967492 -12.675567 -0.233905 -0.000004 0.000004 -2.999999 -4.999646 -7.998761 -0.000209 -104.947728 76.247246 112.553410 -4.549297 66.788472 32.921840 0.000001 -0.000001 0.000001 78.295032 2.327108 -2.105507 0.000005 -0.000007 2.999980 -5.000231 8.000633 0.000059 -6.186519 -172.607814 5.611107 179.999991 -0.000005 -0.936007 152.053098 -6.690425 -1.967856 0.000002 -0.000001 0.453861 78.409212 6.699089 1.960995 31.308190 -7.312424 0.761049 -14.664532 186.167037 6.859132 -0.000003 -0.000006 -1.499142 -22.124269 -0.401008 0.569289 -0.000001 -0.000001 -1.373499 74.830979 -7.445539 0.004127 25.456959 7.355613 -0.000001 
64.141907 -6.427124 87.004593 -0.233051 -1.440028 53.134142 -0.579897 -3.191638 1.841985 2.941475 -6.383759 3.683008 4.589339 -6.336798 3.759328 -12.203676 46.777575 14.229756 17.139625 -30.751226 7.163415 3.356720 -10.549381 14.224134 106.090719 11.524970 111.520563 -0.000010 -0.000004 -0.000007 14.990897 -12.741788 -0.218263 -0.000004 0.000003 -3.000002 -4.999645 -7.998758 -0.000213 -104.995471 76.248482 112.600894 -4.503085 66.806832 32.913493 0.000001 -0.000005 -0.000000 78.301125 2.313433 -2.097451 0.000003 -0.000008 2.999979 -5.000233 8.000633 0.000054 -6.166943 -172.622458 5.586416 179.999991 -0.000005 -0.938002 152.096742 -6.666479 -1.960811 0.000002 -0.000000 0.453826 78.416097 6.695735 1.971944 31.265116 -7.312445 0.762135 -14.652660 186.163486 6.855066 -0.000003 -0.000004 -1.498990 -22.120768 -0.400074 0.569567 -0.000001 -0.000000 -1.373653 74.836703 -7.445582 0.006300 25.456962 7.355614 0.000000 
64.146896 -6.426283 87.010704 -0.240504 -1.443316 53.078742 -0.578667 -3.188468 1.844382 2.944507 -6.377439 3.688499 4.592362 -6.330509 3.764743 -12.118913 46.774174 14.211294 17.136953 -30.725732 7.177033 3.359148 -10.593582 14.213531 106.184395 11.490669 111.474855 -0.000009 -0.000005 -0.000003 15.017267 -12.808893 -0.202180 -0.000002 0.000003 -3.000001 -4.999646 -7.998759 -0.000207 -105.040270 76.249794 112.645372 -4.454269 66.826052 32.903863 -0.000001 -0.000003 0.000001 78.306855 2.299378 -2.089237 0.000003 -0.000006 2.999982 -5.000233 8.000634 0.000057 -6.145901 -172.638086 5.561770 179.999991 -0.000005 -0.938998 152.143010 -6.642680 -1.952531 0.000001 -0.000001 0.453857 78.424403 6.692660 1.981841 31.217287 -7.312450 0.763699 -14.639855 186.159005 6.850952 -0.000005 -0.000004 -1.498851 -22.117464 -0.399015 0.569859 -0.000002 -0.000001 -1.373809 74.842658 -7.445650 0.008486 25.456957 7.355610 0.000000 
64.147202 -6.422663 87.014801 -0.248291 -1.447076 53.022731 -0.577531 -3.185359 1.846890 2.947500 -6.371240 3.694358 4.595337 -6.324384 3.770523 -12.032437 46.769382 14.191503 17.135182 -30.700013 7.190673 3.361307 -10.640086 14.201711 106.279157 11.454891 111.426292 -0.000009 -0.000004 -0.000004 15.046487 -12.876684 -0.185688 -0.000003 0.000003 -3.000002 -4.999645 -7.998759 -0.000211 -105.082126 76.251399 112.686804 -4.402975 66.845934 32.892958 -0.000002 -0.000007 -0.000001 78.312244 2.285055 -2.081161 0.000001 -0.000010 2.999982 -5.000231 8.000633 0.000056 -6.123784 -172.653699 5.537084 179.999991 -0.000005 -0.941000 152.191614 -6.618111 -1.944537 0.000002 -0.000000 0.453947 78.433822 6.689886 1.990902 31.165217 -7.312480 0.765671 -14.626572 186.155508 6.846224 -0.000006 -0.000005 -1.498698 -22.114361 -0.397808 0.570161 -0.000003 -0.000001 -1.373971 74.848874 -7.445789 0.010978 25.456962 7.355613 0.000001 
64.147110 -6.422919 87.013603 -0.256348 -1.451115 52.966109 -0.576494 -3.182329 1.849476 2.950403 -6.365181 3.700480 4.598230 -6.318415 3.776588 -11.944662 46.763358 14.170658 17.134306 -30.673994 7.204411 3.363208 -10.688492 14.188960 106.374316 11.418417 111.377846 -0.000009 -0.000004 -0.000005 15.078262 -12.945276 -0.168744 -0.000001 0.000003 -2.999999 -4.999646 -7.998759 -0.000207 -105.121338 76.252956 112.725579 -4.349380 66.866555 32.880759 -0.000001 -0.000006 -0.000002 78.317271 2.270457 -2.073000 0.000004 -0.000008 2.999980 -5.000232 8.000636 0.000056 -6.100968 -172.669300 5.512378 179.999991 -0.000006 -0.943001 152.241925 -6.593618 -1.936405 0.000003 -0.000002 0.454084 78.444190 6.687343 1.999032 31.109903 -7.312515 0.768036 -14.612864 186.151041 6.841371 -0.000003 -0.000006 -1.498552 -22.111554 -0.396434 0.570480 -0.000002 -0.000001 -1.374131 74.855308 -7.445920 0.013586 25.456965 7.355609 0.000000 
64.138306 -6.422143 87.011307 -0.264596 -1.455245 52.909080 -0.575572 -3.179380 1.852092 2.953187 -6.359275 3.706790 4.601008 -6.312620 3.782820 -11.855979 46.756258 14.149024 17.133956 -30.647598 7.218142 3.364863 -10.738691 14.175167 106.470170 11.381011 111.328539 -0.000010 -0.000004 -0.000005 15.112171 -13.014401 -0.151461 -0.000002 0.000004 -2.999998 -4.999646 -7.998761 -0.000211 -105.157825 76.254698 112.761574 -4.293668 66.887708 32.867386 -0.000001 -0.000003 0.000003 78.322087 2.255649 -2.064941 0.000003 -0.000007 2.999980 -5.000231 8.000638 0.000058 -6.077817 -172.684900 5.487712 179.999991 -0.000005 -0.943994 152.293534 -6.569159 -1.928153 0.000002 -0.000002 0.454272 78.455255 6.685027 2.006245 31.052171 -7.312529 0.770740 -14.599154 186.146588 6.836091 -0.000004 -0.000004 -1.498409 -22.108954 -0.394868 0.570812 -0.000002 -0.000001 -1.374289 74.861961 -7.446031 0.016212 25.456965 7.355614 -0.000002 
64.137611 -6.421058 87.013206 -0.272961 -1.459295 52.851546 -0.574764 -3.176502 1.854744 2.955811 -6.353516 3.713179 4.603622 -6.306992 3.789137 -11.766753 46.747843 14.126802 17.134166 -30.621036 7.232050 3.366285 -10.790293 14.160615 106.566613 11.342610 111.277380 -0.000009 -0.000003 -0.000002 15.148012 -13.084166 -0.133784 -0.000002 0.000003 -2.999998 -4.999645 -7.998760 -0.000210 -105.191532 76.256617 112.794748 -4.236021 66.909503 32.852657 -0.000001 -0.000003 -0.000003 78.326581 2.240667 -2.056873 0.000003 -0.000009 2.999978 -5.000232 8.000639 0.000057 -6.054694 -172.700500 5.463084 179.999991 -0.000004 -0.946001 152.345662 -6.545603 -1.920345 0.000004 -0.000002 0.454490 78.466777 6.682878 2.012845 30.992530 -7.312580 0.773709 -14.585545 186.142121 6.830356 -0.000003 -0.000005 -1.498272 -22.106648 -0.393094 0.571156 -0.000003 -0.000000 -1.374449 74.868757 -7.446206 0.019240 25.456960 7.355619 -0.000001 
